<?xml version="1.0" encoding="iso-8859-1"?>
<!-- Generator: Adobe Illustrator 19.0.0, SVG Export Plug-In . SVG Version: 6.00 Build 0)  -->
<svg version="1.1" id="Layer_1" xmlns="http://www.w3.org/2000/svg" xmlns:xlink="http://www.w3.org/1999/xlink" x="0px" y="0px"
	 viewBox="0 0 510.713 510.713" style="enable-background:new 0 0 510.713 510.713;" xml:space="preserve">
<g>
	<g>
		<path d="M294.266,257.787l-42.667-42.667c-3.904-3.904-10.133-4.182-14.379-0.661L20.708,394.917
			c-12.395,10.326-19.925,25.515-20.65,41.643c-0.725,16.128,5.397,31.915,16.811,43.328l12.65,12.65
			c10.88,10.88,25.344,16.874,40.725,16.874c17.152,0,33.28-7.552,44.267-20.715l180.438-216.512
			C298.447,267.919,298.169,261.69,294.266,257.787z"/>
	</g>
</g>
<g>
	<g>
		<path d="M491.172,198.714c-18.069-18.069-49.515-18.069-67.584,0l-96.832,96.832c-18.645,18.645-18.645,48.939,0.043,67.627
			c12.075,12.075,28.16,18.73,45.248,18.73s33.173-6.656,45.248-18.73l73.92-73.92C516.175,264.293,516.175,223.695,491.172,198.714
			z"/>
	</g>
</g>
<g>
	<g>
		<path d="M336.42,86.629c-2.966,5.099-6.379,9.963-10.667,14.251l-96.832,96.832c-4.288,4.288-9.152,7.68-14.251,10.667
			l86.357,86.357c2.965-5.099,6.379-9.963,10.667-14.251l96.832-96.832c4.288-4.288,9.238-7.616,14.421-10.496L336.42,86.629z"/>
	</g>
</g>
<g>
	<g>
		<path d="M310.628,18.17c-24.171-24.171-66.326-24.171-90.496,0l-73.92,73.92c-24.939,24.939-24.939,65.536,0.043,90.538
			c9.046,9.024,21.034,13.995,33.792,13.995s24.768-4.971,33.792-13.995l96.832-96.832C329.316,67.152,329.316,36.837,310.628,18.17
			z"/>
	</g>
</g>
<g>
	<g>
		<path d="M457.38,446.671H332.047c-29.397,0-53.333,23.936-53.333,53.333c0,5.888,4.779,10.667,10.667,10.667h210.667
			c5.888,0,10.667-4.779,10.667-10.667C510.713,470.586,486.799,446.671,457.38,446.671z"/>
	</g>
</g>
<g>
</g>
<g>
</g>
<g>
</g>
<g>
</g>
<g>
</g>
<g>
</g>
<g>
</g>
<g>
</g>
<g>
</g>
<g>
</g>
<g>
</g>
<g>
</g>
<g>
</g>
<g>
</g>
<g>
</g>
</svg>
